<?xml version="1.0" encoding="UTF-8" standalone="no"?>
<!-- Created with Inkscape (http://www.inkscape.org/) -->

<svg
   version="1.1"
   id="svg11008"
   xml:space="preserve"
   width="771.2243"
   height="223.34875"
   viewBox="0 0 771.2243 223.34875"
   sodipodi:docname="logo_cmic.svg"
   inkscape:version="1.1.1 (3bf5ae0d25, 2021-09-20)"
   xmlns:inkscape="http://www.inkscape.org/namespaces/inkscape"
   xmlns:sodipodi="http://sodipodi.sourceforge.net/DTD/sodipodi-0.dtd"
   xmlns="http://www.w3.org/2000/svg"
   xmlns:svg="http://www.w3.org/2000/svg"><defs
     id="defs11012" /><sodipodi:namedview
     id="namedview11010"
     pagecolor="#ffffff"
     bordercolor="#666666"
     borderopacity="1.0"
     inkscape:pageshadow="2"
     inkscape:pageopacity="0.0"
     inkscape:pagecheckerboard="0"
     showgrid="false"
     inkscape:zoom="0.43956084"
     inkscape:cx="346.93719"
     inkscape:cy="203.61232"
     inkscape:window-width="1920"
     inkscape:window-height="948"
     inkscape:window-x="0"
     inkscape:window-y="27"
     inkscape:window-maximized="1"
     inkscape:current-layer="g11014" /><g
     id="g11014"
     inkscape:groupmode="layer"
     inkscape:label="logo_cmic"
     transform="scale(1.3333333)"><g
       id="g11016"><path
         d="m 72.168,0 v 23.164 l 52.691,30.152 -0.722,60.258 -51.617,29.801 -51.852,-30.023 -20.656,11.66 72.484,42.5 72.508,-41.903 V 41.402 Z"
         style="fill:#154050;fill-opacity:1;fill-rule:nonzero;stroke:none"
         id="path11018" /><g
         id="g11020"><path
           d="m 72.406,22.59 -0.004,26.348 29.364,16.96 -0.008,32.95 22.773,14.277 0.571,-60.379 z"
           style="fill:#577070;fill-opacity:1;fill-rule:nonzero;stroke:#577070;stroke-width:5.66929;stroke-linecap:butt;stroke-linejoin:miter;stroke-miterlimit:4;stroke-dasharray:none;stroke-opacity:1"
           id="path11022" /></g><path
         d="M 72.168,49.504 V 23.164 L 20.859,52.449 20.668,113.352 43.824,99.922 V 65.867 Z"
         style="fill:#addbd8;fill-opacity:1;fill-rule:nonzero;stroke:none"
         id="path11024" /><path
         d="M 72.168,49.504 43.824,65.867 V 99.922 L 72.25,83.508 Z"
         style="fill:#f2f1f0;fill-opacity:1;fill-rule:nonzero;stroke:none"
         id="path11026" /><path
         d="m 72.168,49.504 0.082,34.004 29.281,15.918 V 66.453 Z"
         style="fill:#7c7d7c;fill-opacity:1;fill-rule:nonzero;stroke:none"
         id="path11028" /><path
         d="M 72.168,23.164 V 0 L 0,41.398 0.016,125.016 20.672,113.352 20.859,52.449 Z"
         style="fill:#2a7c9a;fill-opacity:1;fill-rule:nonzero;stroke:none"
         id="path11030" /><path
         d="m 72.168,0 v 23.164 l 52.691,30.152 -0.722,60.258 20.867,12.035 V 41.402 Z"
         style="fill:#154050;fill-opacity:1;fill-rule:nonzero;stroke:none"
         id="path11032" /><path
         d="M 43.824,99.922 72.477,116.461 101.531,99.426 72.25,83.508 Z"
         style="fill:#aaabaa;fill-opacity:1;fill-rule:nonzero;stroke:none"
         id="path11034" /><path
         d="m 20.668,113.352 c 0,0 51.852,30.023 51.852,30.023 L 124.137,113.574 101.531,99.426 72.477,116.461 43.824,99.922 Z"
         style="fill:#7c9c9b;fill-opacity:1;fill-rule:nonzero;stroke:none"
         id="path11036" /><path
         d="m 0.012,125.016 20.656,-11.664 51.852,30.023 51.617,-29.801 20.867,12.035 -72.508,41.903 z"
         style="fill:#205a6f;fill-opacity:1;fill-rule:nonzero;stroke:none"
         id="path11038" /><path
         d="m 72.168,23.164 -0.004,26.348 29.363,16.957 -0.007,32.949 22.617,14.156 0.722,-60.258 z"
         style="fill:#577070;fill-opacity:1;fill-rule:nonzero;stroke:none"
         id="path11040" /><path
         d="m 209.641,133.309 c -3.141,-0.133 -5.555,-0.508 -7.711,-1.204 -2.707,-0.875 -5.86,-2.23 -8.379,-3.605 -3.293,-1.797 -3.992,-2.273 -5.676,-3.863 -0.57,-0.539 -1.336,-1.235 -1.699,-1.551 -1.238,-1.063 -2.84,-2.606 -3.414,-3.289 -0.317,-0.371 -0.91,-1.188 -1.321,-1.805 -0.41,-0.621 -1.148,-1.683 -1.644,-2.359 -1.711,-2.34 -3.356,-5.375 -3.996,-7.383 -0.387,-1.211 -1.422,-5.504 -1.707,-7.098 -0.297,-1.632 -0.364,-2.578 -0.465,-6.324 -0.117,-4.555 -0.055,-25.109 0.086,-26.566 0.187,-1.996 0.512,-3.754 1.164,-6.332 1.394,-5.516 2.09,-7.035 5.527,-12.043 2,-2.914 2.285,-3.266 4.36,-5.352 1.972,-1.984 2.769,-2.629 5.672,-4.578 1.312,-0.879 4.656,-2.863 5.789,-3.434 0.945,-0.476 1.968,-0.8 4.972,-1.562 5.5,-1.402 5.324,-1.387 14.524,-1.426 7.98,-0.035 13.152,0.055 14.773,0.254 1.594,0.195 3.711,0.649 6.188,1.324 2.664,0.723 3.214,0.934 5.562,2.117 2.348,1.18 2.813,1.465 4.453,2.696 0.762,0.574 1.879,1.379 2.489,1.789 1.207,0.82 2.093,1.617 3.57,3.219 1.402,1.523 1.789,2.378 1.566,3.445 -0.195,0.953 -0.66,1.598 -2.433,3.371 -1.282,1.281 -3.063,2.672 -4.125,3.219 -0.614,0.316 -1.336,0.379 -1.961,0.172 -0.45,-0.149 -3.832,-2.356 -5.567,-3.633 -1.82,-1.34 -3.265,-2.184 -5.234,-3.055 -1.953,-0.867 -2.973,-1.113 -5.879,-1.437 l -2.066,-0.231 h -16.715 l -1.906,0.188 c -3.219,0.316 -4.317,0.531 -5.876,1.148 -2.156,0.852 -5.3,2.813 -7.957,4.961 -1.632,1.324 -3.332,3.32 -4.82,5.668 -1.652,2.605 -2.015,3.574 -2.531,6.738 -0.395,2.41 -0.527,3.668 -0.621,5.875 -0.168,3.879 -0.039,24.387 0.164,26.321 0.433,4.113 1.07,6.644 2.226,8.855 0.754,1.441 1.832,3.047 2.692,4.02 3.48,3.929 3.965,4.343 7.113,6.078 3.024,1.668 6.465,2.82 9.527,3.183 1.879,0.227 14.411,0.418 16.926,0.258 2.879,-0.18 4.953,-0.492 6.469,-0.969 1.227,-0.386 4.215,-1.609 5.453,-2.23 2.051,-1.027 3.899,-2.156 5.664,-3.469 2.254,-1.672 2.844,-1.98 3.77,-1.988 0.547,0 0.691,0.031 1.168,0.273 0.761,0.387 3,2.274 4.629,3.899 1.144,1.144 1.418,1.465 1.648,1.937 0.707,1.442 0.359,2.371 -1.605,4.317 -2.129,2.109 -4.711,4.257 -6.379,5.312 -1.918,1.211 -6.18,3.324 -8.114,4.028 -1.14,0.41 -4.175,1.261 -5.379,1.503 -1.453,0.293 -2.105,0.356 -4.914,0.489 -2.929,0.14 -15.679,0.23 -18.05,0.129 z m 324.632,-0.004 c -3.902,-0.16 -5.886,-0.457 -8.515,-1.278 -3.028,-0.945 -5.598,-2.023 -8.574,-3.593 -3.563,-1.879 -4.094,-2.243 -6.317,-4.325 -0.785,-0.734 -1.914,-1.793 -2.512,-2.355 -1.265,-1.188 -2.109,-2.164 -2.937,-3.406 -0.328,-0.485 -1.098,-1.61 -1.715,-2.496 -1.465,-2.098 -2.004,-3.004 -2.984,-5.012 -1.395,-2.848 -1.649,-3.613 -2.199,-6.617 -0.567,-3.094 -0.778,-5.157 -0.879,-8.485 -0.114,-3.765 -0.043,-26.472 0.086,-27.808 0.246,-2.504 0.941,-6.711 1.382,-8.36 0.942,-3.492 4.172,-9.058 7.618,-13.117 0.984,-1.16 2.949,-3.113 4.082,-4.066 2.046,-1.711 6.101,-4.274 8.992,-5.672 1.406,-0.684 2.461,-1.035 5.246,-1.754 2.598,-0.672 3.707,-0.914 5.461,-1.195 l 1.367,-0.215 9.641,-0.031 c 12.82,-0.04 12.972,-0.032 17.632,1.14 3.336,0.84 4.34,1.156 5.914,1.883 2.004,0.922 2.954,1.512 6.536,4.062 l 2.402,1.711 1.711,1.696 c 1.797,1.785 2.285,2.41 2.523,3.218 0.25,0.864 0,1.754 -0.773,2.758 -0.746,0.969 -2.91,3.059 -4.043,3.903 -1.789,1.332 -2.52,1.609 -3.52,1.328 -0.523,-0.149 -0.839,-0.344 -5.925,-3.68 -3.438,-2.254 -5.223,-3.16 -7.582,-3.848 -2.348,-0.683 -4.176,-0.781 -14.649,-0.781 -7.769,-0.004 -9.797,0.055 -11.937,0.336 -2.211,0.289 -3.903,0.926 -6.336,2.395 -1.848,1.109 -2.574,1.617 -4.164,2.894 -1.914,1.539 -2.649,2.32 -4.625,4.93 -1.828,2.41 -3.121,5.207 -3.575,7.734 -0.07,0.387 -0.246,1.801 -0.39,3.145 l -0.266,2.441 -0.027,11.793 c -0.031,12.031 -0.027,12.277 0.305,15.848 0.343,3.754 0.519,4.383 2.109,7.707 0.941,1.965 1.234,2.383 3.777,5.328 1.43,1.664 2.137,2.363 3.219,3.199 2.734,2.121 7.148,4.164 10.5,4.863 1.356,0.286 2.523,0.454 3.816,0.547 1.493,0.11 13.622,0.106 15.106,-0.008 1.648,-0.121 4.191,-0.527 5.664,-0.902 0.68,-0.176 2.988,-0.98 4.246,-1.48 2.172,-0.871 5.453,-2.852 8.508,-5.141 1.644,-1.234 2.058,-1.441 2.824,-1.437 0.973,0.007 1.793,0.543 3.836,2.511 0.688,0.66 1.664,1.602 2.176,2.09 1.523,1.465 1.972,2.223 1.902,3.203 -0.062,0.887 -0.328,1.27 -2.211,3.18 -1.965,1.992 -2.937,2.883 -4.101,3.754 -2.942,2.195 -8.676,4.992 -12.434,6.066 -3.535,1.008 -4.879,1.215 -9.047,1.403 -2.137,0.093 -13.996,0.089 -16.344,-0.008 z m -185.097,-1.153 c -1.856,-0.218 -2.817,-0.961 -3.289,-2.543 l -0.141,-0.476 -0.023,-23.918 c -0.012,-13.156 -0.035,-26.637 -0.051,-29.961 l -0.024,-6.043 -0.183,-1.074 c -0.285,-1.696 -1.098,-4.817 -1.688,-6.496 -0.75,-2.141 -3.066,-5.602 -4.957,-7.411 -2.379,-2.277 -4.609,-3.835 -7.816,-5.468 -2.27,-1.153 -3.207,-1.407 -6.285,-1.707 -0.762,-0.075 -2.903,-0.106 -7.324,-0.106 -9.821,0 -10.567,0.113 -14.938,2.235 -1.383,0.671 -2.727,1.461 -3.477,2.039 -0.726,0.558 -2.875,2.414 -3.632,3.132 -1.676,1.594 -3.473,4.207 -4.274,6.207 -0.332,0.829 -1.156,3.34 -1.359,4.141 -0.25,0.969 -0.57,2.598 -0.809,4.109 l -0.179,1.145 -0.047,29.586 -0.051,29.59 -0.149,0.492 c -0.445,1.469 -1.273,2.195 -2.8,2.441 -0.817,0.133 -6.504,0.106 -7.293,-0.035 -0.871,-0.156 -1.446,-0.449 -1.949,-1 -0.504,-0.551 -0.723,-1.109 -0.84,-2.129 -0.059,-0.527 -0.078,-14.804 -0.063,-46.16 l 0.027,-45.394 0.149,-0.453 c 0.387,-1.153 1.074,-1.747 2.363,-2.043 0.738,-0.172 5.621,-0.25 7,-0.118 2.086,0.204 2.992,0.836 3.395,2.368 0.086,0.316 0.16,1.152 0.211,2.328 0.105,2.539 0.316,3.488 0.91,4.062 0.496,0.485 1.105,0.547 1.91,0.203 0.203,-0.09 0.93,-0.605 1.609,-1.148 0.68,-0.543 1.649,-1.281 2.149,-1.645 0.496,-0.359 1.43,-1.062 2.066,-1.558 2.215,-1.723 4.301,-2.985 6.086,-3.688 2.102,-0.824 5.152,-1.691 6.91,-1.961 l 0.992,-0.152 h 6.458 c 8.707,0 8.476,-0.027 14.648,1.641 2.457,0.664 2.816,0.785 4.055,1.375 2.097,0.996 4.652,2.539 6.125,3.699 0.41,0.32 1.211,0.914 1.781,1.312 1.832,1.285 2.762,2.153 4.469,4.18 1.289,1.523 1.793,1.938 2.683,2.195 0.633,0.184 1.223,0.125 1.895,-0.191 0.754,-0.356 1.285,-0.832 2.808,-2.524 1.879,-2.082 2.368,-2.515 4.348,-3.867 0.941,-0.644 2.109,-1.465 2.598,-1.824 0.484,-0.359 1.211,-0.844 1.613,-1.074 1.145,-0.66 4.109,-2.137 4.918,-2.445 0.773,-0.301 5.84,-1.653 7.234,-1.93 1.078,-0.219 2.532,-0.402 3.973,-0.504 1.402,-0.102 12.402,-0.031 14.02,0.086 1.316,0.098 3.082,0.39 4.683,0.777 1.75,0.422 5.121,1.406 5.926,1.731 1.496,0.601 4.586,2.281 6.219,3.375 1.242,0.832 3.773,2.695 4.523,3.328 1.223,1.035 3.273,3.125 3.984,4.066 0.383,0.5 1.032,1.321 1.45,1.821 1.07,1.292 1.285,1.597 2.738,3.945 1.582,2.551 1.887,3.18 2.422,5.023 0.23,0.793 0.586,1.91 0.785,2.485 0.543,1.566 1.172,4.148 1.547,6.382 0.148,0.864 0.262,18.098 0.273,41.215 l 0.012,20.981 -0.148,0.57 c -0.379,1.488 -1.317,2.348 -2.887,2.66 -0.856,0.168 -4.574,0.25 -6.195,0.133 -0.704,-0.051 -1.489,-0.152 -1.739,-0.226 -1.316,-0.391 -1.965,-1.075 -2.297,-2.422 L 416.098,128.965 416.051,99.047 416,69.129 415.863,68.293 c -0.367,-2.231 -0.832,-4.633 -1.062,-5.453 -0.348,-1.27 -0.953,-2.461 -2.231,-4.387 -1.953,-2.957 -2.75,-3.898 -4.715,-5.586 -2.046,-1.754 -3.394,-2.664 -5.917,-3.98 -2.422,-1.266 -3.825,-1.629 -7.618,-1.985 l -1.871,-0.172 -5.019,0.032 c -4.309,0.031 -5.309,0.062 -7.051,0.218 -3.488,0.313 -4.188,0.481 -6.285,1.532 -2.703,1.355 -3.973,2.168 -6.324,4.05 -3.211,2.575 -4.293,3.903 -5.911,7.258 -0.871,1.809 -1.113,2.387 -1.781,4.301 -0.558,1.598 -0.777,2.434 -1.023,3.891 l -0.145,0.871 -0.051,29.75 c -0.035,22.98 -0.07,29.871 -0.148,30.273 -0.395,2.028 -1.465,2.977 -3.656,3.242 -0.789,0.098 -5.055,0.098 -5.875,0.004 z m 118.91,-0.004 c -1.172,-0.105 -2.027,-0.449 -2.535,-1.027 -0.344,-0.394 -0.485,-0.68 -0.699,-1.433 l -0.18,-0.637 -0.043,-38.446 -0.043,-38.441 -0.188,-0.66 c -0.324,-1.141 -0.847,-1.82 -1.753,-2.281 -0.75,-0.379 -1.09,-0.422 -3.684,-0.493 -3.031,-0.082 -3.383,-0.152 -4.109,-0.808 -0.364,-0.328 -0.582,-0.703 -0.731,-1.25 -0.125,-0.461 -0.121,-8.82 0.004,-9.606 0.191,-1.203 0.711,-1.847 1.746,-2.175 l 0.606,-0.188 h 18.375 l 0.515,0.141 c 1.313,0.363 1.914,1.008 2.192,2.347 0.109,0.532 0.14,8.692 0.062,16.668 -0.019,2.348 -0.035,7.43 -0.027,11.297 0.008,3.871 0.008,16.852 0.004,28.844 -0.008,11.996 0.004,23.168 0.023,24.828 0.016,1.664 -0.008,4.699 -0.055,6.746 l -0.086,3.723 -0.179,0.555 c -0.133,0.414 -0.289,0.675 -0.602,1.019 -0.789,0.859 -1.605,1.164 -3.461,1.285 -1.394,0.09 -4.105,0.086 -5.152,-0.008 z"
         style="fill:#2184ab;fill-opacity:1;fill-rule:nonzero;stroke:none"
         id="path11042" /></g></g></svg>
