<?xml version="1.0" encoding="UTF-8" standalone="no"?>
<!-- Created with Inkscape (http://www.inkscape.org/) -->

<svg
   version="1.1"
   id="svg10662"
   xml:space="preserve"
   width="602.52673"
   height="172.89067"
   viewBox="0 0 602.52673 172.89067"
   sodipodi:docname="ucl_logo.svg"
   inkscape:version="1.1.1 (3bf5ae0d25, 2021-09-20)"
   xmlns:inkscape="http://www.inkscape.org/namespaces/inkscape"
   xmlns:sodipodi="http://sodipodi.sourceforge.net/DTD/sodipodi-0.dtd"
   xmlns="http://www.w3.org/2000/svg"
   xmlns:svg="http://www.w3.org/2000/svg"><defs
     id="defs10666" /><sodipodi:namedview
     id="namedview10664"
     pagecolor="#ffffff"
     bordercolor="#666666"
     borderopacity="1.0"
     inkscape:pageshadow="2"
     inkscape:pageopacity="0.0"
     inkscape:pagecheckerboard="0"
     showgrid="false"
     inkscape:zoom="1.1252613"
     inkscape:cx="396.79673"
     inkscape:cy="229.72443"
     inkscape:window-width="1920"
     inkscape:window-height="948"
     inkscape:window-x="0"
     inkscape:window-y="27"
     inkscape:window-maximized="1"
     inkscape:current-layer="g10668" /><g
     id="g10668"
     inkscape:groupmode="layer"
     inkscape:label="ucl_logo"
     transform="matrix(1.3333333,0,0,1.3333333,0,8.9889333e-6)"><g
       id="g10670"
       style="fill:#ffffff;fill-opacity:1"><path
         d="M 85.867,129.668 C 84.09,128.402 82.41,127.059 80.922,125.641 67.691,112.832 67.527,97.953 67.133,84.012 V 4.898 h 42.336 v 83.075 c 0,5.648 0.187,11.488 4.906,16.004 3.418,3.585 8.512,4.898 13.418,4.898 6.625,0 10.973,-2.449 13.434,-4.707 4.906,-4.707 5.093,-10.547 5.093,-16.195 V 4.898 h 42.524 v 70.825 c 0,15.254 0,35.035 -15.692,49.918 -1.492,1.406 -3.148,2.75 -4.929,4.027 h 63.394 C 212.941,116.266 204.184,93.867 204.184,72.145 204.184,36.355 228.18,0 273.352,0 c 20.207,0 39.503,7.16 53.476,21.48 5.672,5.836 8.324,10.356 11.16,15.629 l -35.34,17.524 C 299.23,46.715 292.812,32.59 275.051,32.59 c -9.254,0 -15.113,4.336 -17.949,7.16 -10.02,9.602 -10.02,24.672 -10.02,29.953 0,19.774 7.371,38.422 28.176,38.422 19.648,0 25.508,-17.332 27.015,-21.852 l 35.899,17.329 c -3.395,6.402 -6.621,12.433 -13.039,18.836 -2.754,2.703 -5.738,5.105 -8.903,7.23 h 38.836 V 4.711 h 42.153 v 98.211 h 54.676 v 26.746"
         style="fill:#ffffff;fill-opacity:1;fill-rule:nonzero;stroke:none"
         id="path10672" /><path
         d="m 45.258,32.914 c -0.082,-0.016 -22.07,-4.738 -22.07,-4.738 0,0 -22.016,4.73 -22.059,4.738 -0.121,0.027 -0.078,0.125 -0.078,0.125 l 0.304,1.129 H 1.422 1.414 c 0,0 0.34,-0.043 0.535,0.273 l 0.332,1.813 c 0,0 0.008,0.129 0.137,0.129 0.133,0 0.797,0 0.797,0 h 39.949 c 0,0 0.691,0 0.809,0 0.105,0 0.121,-0.094 0.121,-0.094 l 0.328,-1.816 c 0.191,-0.356 0.558,-0.305 0.558,-0.305 h -0.003 0.054 l 0.305,-1.129 c 0,0 0.043,-0.098 -0.078,-0.125"
         style="fill:#ffffff;fill-opacity:1;fill-rule:nonzero;stroke:none"
         id="path10674" /><path
         d="m 42.949,36.965 c 0.028,0 0.047,-0.02 0.047,-0.051 v -0.562 c 0,-0.028 -0.019,-0.004 -0.047,-0.004 h -3.355 c -0.024,0 -0.047,-0.024 -0.047,0.004 v 0.562 c 0,0.031 0.023,0.051 0.047,0.051 l 0.144,0.004 c 0.067,0 0.071,0.066 0.071,0.133 0,0.082 0.039,0.519 0.343,0.781 0.043,0.035 0.028,0.144 -0.062,0.144 -0.008,0 -0.098,0 -0.106,0 -0.078,0 -0.082,0.051 -0.058,0.094 0.027,0.051 0.035,0.199 0.035,0.27 0,0.07 0,0.191 0,0.242 0,0.047 0.004,0.078 0.051,0.078 0,0 0.047,0 0.047,0 0,0 0.039,0 0.039,0.035 0,0.035 0,0.051 0,0.051 v 12.332 c -0.039,0.035 -0.172,0.168 -0.184,0.18 -0.008,0.007 -0.016,0.023 -0.016,0.046 v 0.204 c 0,0.015 -0.003,0.035 -0.015,0.046 -0.008,0.012 -0.031,0.016 -0.047,0.016 H 39.68 c -0.028,0 -0.047,0.027 -0.047,0.051 0,0 0,0.344 0,0.355 h 3.281 c 0,-0.011 0,-0.355 0,-0.355 0,-0.024 -0.027,-0.051 -0.051,-0.051 h -0.156 c -0.016,0 -0.035,-0.004 -0.047,-0.016 -0.008,-0.011 -0.012,-0.031 -0.012,-0.046 v -0.204 c 0,-0.023 -0.003,-0.031 -0.019,-0.046 -0.02,-0.016 -0.129,-0.129 -0.18,-0.18 V 38.797 c 0,0 0,-0.016 0,-0.051 0,-0.035 0.031,-0.035 0.031,-0.035 0.004,0 0.043,0 0.047,0 0.043,0 0.051,-0.031 0.051,-0.078 0,-0.051 0,-0.172 0,-0.242 0,-0.071 0.012,-0.219 0.035,-0.27 0.028,-0.043 0.024,-0.094 -0.058,-0.094 0,0 -0.094,0 -0.098,0 -0.098,0 -0.109,-0.109 -0.066,-0.144 0.308,-0.25 0.339,-0.688 0.339,-0.774 0,-0.074 -0.003,-0.14 0.075,-0.14 l 0.144,-0.004"
         style="fill:#ffffff;fill-opacity:1;fill-rule:nonzero;stroke:none"
         id="path10676" /><path
         d="m 35.719,36.965 c 0.027,0 0.047,-0.02 0.047,-0.051 v -0.562 c 0,-0.028 -0.02,-0.004 -0.047,-0.004 h -3.356 c -0.027,0 -0.047,-0.024 -0.047,0.004 v 0.562 c 0,0.031 0.02,0.051 0.047,0.051 l 0.145,0.004 c 0.066,0 0.07,0.066 0.07,0.133 0,0.082 0.039,0.519 0.34,0.781 0.043,0.035 0.027,0.144 -0.063,0.144 -0.007,0 -0.093,0 -0.101,0 -0.078,0 -0.086,0.051 -0.059,0.094 0.028,0.051 0.032,0.199 0.032,0.27 0,0.07 0,0.191 0,0.242 0,0.047 0.007,0.078 0.054,0.078 0,0 0.043,0 0.047,0 0,0 0.031,0 0.031,0.035 0,0.035 0.004,0.051 0.004,0.051 v 12.332 c -0.035,0.035 -0.168,0.168 -0.179,0.18 -0.012,0.007 -0.02,0.023 -0.02,0.046 v 0.204 c 0,0.015 -0.004,0.035 -0.012,0.046 -0.011,0.012 -0.031,0.016 -0.047,0.016 h -0.156 c -0.027,0 -0.047,0.027 -0.047,0.051 0,0 0,0.344 0,0.355 h 3.278 c 0,-0.011 0,-0.355 0,-0.355 0,-0.024 -0.024,-0.051 -0.047,-0.051 H 35.48 c -0.019,0 -0.039,-0.004 -0.05,-0.016 -0.008,-0.011 -0.016,-0.031 -0.016,-0.046 v -0.204 c 0,-0.023 0,-0.031 -0.019,-0.046 -0.016,-0.016 -0.125,-0.129 -0.18,-0.18 V 38.797 c 0,0 0,-0.016 0,-0.051 0,-0.035 0.035,-0.035 0.035,-0.035 0.004,0 0.039,0 0.047,0 0.043,0 0.047,-0.031 0.047,-0.078 0,-0.051 0,-0.172 0,-0.242 0,-0.071 0.011,-0.219 0.039,-0.27 0.027,-0.043 0.019,-0.094 -0.059,-0.094 -0.004,0 -0.094,0 -0.101,0 -0.094,0 -0.106,-0.109 -0.063,-0.144 0.309,-0.25 0.336,-0.688 0.336,-0.774 0,-0.074 0,-0.14 0.078,-0.14 l 0.145,-0.004"
         style="fill:#ffffff;fill-opacity:1;fill-rule:nonzero;stroke:none"
         id="path10678" /><path
         d="m 28.484,36.965 c 0.028,0 0.051,-0.02 0.051,-0.051 v -0.562 c 0,-0.028 -0.023,-0.004 -0.051,-0.004 h -3.351 c -0.031,0 -0.051,-0.024 -0.051,0.004 v 0.562 c 0,0.031 0.02,0.051 0.051,0.051 l 0.14,0.004 c 0.067,0 0.071,0.066 0.071,0.133 0,0.082 0.039,0.519 0.344,0.781 0.042,0.035 0.027,0.144 -0.067,0.144 -0.004,0 -0.094,0 -0.101,0 -0.079,0 -0.082,0.051 -0.059,0.094 0.027,0.051 0.031,0.199 0.031,0.27 0,0.07 0,0.191 0,0.242 0,0.047 0.012,0.078 0.051,0.078 0.008,0 0.051,0 0.055,0 0,0 0.031,0 0.031,0.035 0,0.035 0.004,0.051 0.004,0.051 v 12.332 c -0.035,0.035 -0.172,0.168 -0.184,0.18 -0.008,0.007 -0.015,0.023 -0.015,0.046 v 0.204 c 0,0.015 -0.004,0.035 -0.016,0.046 -0.012,0.012 -0.027,0.016 -0.047,0.016 h -0.156 c -0.024,0 -0.047,0.027 -0.047,0.051 0,0 0,0.344 0,0.355 h 3.281 c 0,-0.011 0,-0.355 0,-0.355 0,-0.024 -0.023,-0.051 -0.047,-0.051 h -0.156 c -0.019,0 -0.039,-0.004 -0.051,-0.016 -0.004,-0.011 -0.011,-0.031 -0.011,-0.046 v -0.204 c 0,-0.023 -0.004,-0.031 -0.016,-0.046 -0.023,-0.016 -0.129,-0.129 -0.184,-0.18 V 38.797 c 0,0 0,-0.016 0,-0.051 0,-0.035 0.036,-0.035 0.036,-0.035 0.003,0 0.039,0 0.042,0 0.047,0 0.051,-0.031 0.051,-0.078 0,-0.051 0,-0.172 0,-0.242 0,-0.071 0.012,-0.219 0.039,-0.27 0.024,-0.043 0.02,-0.094 -0.058,-0.094 -0.004,0 -0.094,0 -0.102,0 -0.097,0 -0.105,-0.109 -0.062,-0.144 0.308,-0.25 0.336,-0.688 0.336,-0.774 0,-0.074 0,-0.14 0.078,-0.14 l 0.14,-0.004"
         style="fill:#ffffff;fill-opacity:1;fill-rule:nonzero;stroke:none"
         id="path10680" /><path
         d="m 21.254,36.965 c 0.027,0 0.051,-0.02 0.051,-0.051 v -0.562 c 0,-0.028 -0.024,-0.004 -0.051,-0.004 h -3.356 c -0.023,0 -0.046,-0.024 -0.046,0.004 v 0.562 c 0,0.031 0.023,0.051 0.046,0.051 l 0.145,0.004 c 0.07,0 0.07,0.066 0.07,0.133 0,0.082 0.039,0.519 0.344,0.781 0.043,0.035 0.023,0.144 -0.062,0.144 -0.008,0 -0.098,0 -0.106,0 -0.078,0 -0.082,0.051 -0.059,0.094 0.028,0.051 0.036,0.199 0.036,0.27 0,0.07 0,0.191 0,0.242 0,0.047 0.004,0.078 0.05,0.078 0,0 0.047,0 0.047,0 0,0 0.039,0 0.039,0.035 0,0.035 0,0.051 0,0.051 v 12.332 c -0.039,0.035 -0.172,0.168 -0.183,0.18 -0.008,0.007 -0.016,0.023 -0.016,0.046 v 0.204 c 0,0.015 -0.008,0.035 -0.015,0.046 -0.012,0.012 -0.032,0.016 -0.047,0.016 h -0.157 c -0.027,0 -0.046,0.027 -0.046,0.051 0,0 0,0.344 0,0.355 h 3.281 c 0,-0.011 0,-0.355 0,-0.355 0,-0.024 -0.024,-0.051 -0.051,-0.051 h -0.156 c -0.016,0 -0.035,-0.004 -0.047,-0.016 -0.008,-0.011 -0.012,-0.031 -0.012,-0.046 v -0.204 c 0,-0.023 -0.004,-0.031 -0.019,-0.046 -0.02,-0.016 -0.129,-0.129 -0.18,-0.18 V 38.797 c 0,0 -0.004,-0.016 -0.004,-0.051 0,-0.035 0.039,-0.035 0.039,-0.035 0.004,0 0.039,0 0.043,0 0.043,0 0.051,-0.031 0.051,-0.078 0,-0.051 0,-0.172 0,-0.242 0,-0.071 0.012,-0.219 0.035,-0.27 0.027,-0.043 0.02,-0.094 -0.055,-0.094 -0.008,0 -0.097,0 -0.101,0 -0.098,0 -0.11,-0.109 -0.067,-0.144 0.309,-0.25 0.336,-0.688 0.336,-0.774 0,-0.074 0,-0.14 0.078,-0.14 l 0.145,-0.004"
         style="fill:#ffffff;fill-opacity:1;fill-rule:nonzero;stroke:none"
         id="path10682" /><path
         d="m 14.023,36.965 c 0.028,0 0.047,-0.02 0.047,-0.051 v -0.562 c 0,-0.028 -0.019,-0.004 -0.047,-0.004 h -3.355 c -0.027,0 -0.047,-0.024 -0.047,0.004 v 0.562 c 0,0.031 0.02,0.051 0.047,0.051 l 0.144,0.004 c 0.067,0 0.067,0.066 0.067,0.133 0,0.082 0.043,0.519 0.344,0.781 0.043,0.035 0.027,0.144 -0.063,0.144 -0.004,0 -0.098,0 -0.101,0 -0.082,0 -0.086,0.051 -0.063,0.094 0.031,0.051 0.035,0.199 0.035,0.27 0,0.07 0,0.191 0,0.242 0,0.047 0.008,0.078 0.055,0.078 0,0 0.047,0 0.047,0 0,0 0.035,0 0.035,0.035 0,0.035 0,0.051 0,0.051 v 12.332 c -0.035,0.035 -0.172,0.168 -0.18,0.18 -0.011,0.007 -0.019,0.023 -0.019,0.046 v 0.204 c 0,0.015 -0.004,0.035 -0.016,0.046 -0.008,0.012 -0.027,0.016 -0.043,0.016 h -0.156 c -0.027,0 -0.051,0.027 -0.051,0.051 0,0 0,0.344 0,0.355 h 3.281 c 0,-0.011 0,-0.355 0,-0.355 0,-0.024 -0.023,-0.051 -0.046,-0.051 h -0.157 c -0.019,0 -0.035,-0.004 -0.047,-0.016 -0.011,-0.011 -0.015,-0.031 -0.015,-0.046 v -0.204 c 0,-0.023 -0.004,-0.031 -0.016,-0.046 -0.019,-0.016 -0.129,-0.129 -0.183,-0.18 V 38.797 c 0,0 0,-0.016 0,-0.051 0,-0.035 0.035,-0.035 0.035,-0.035 0.004,0 0.039,0 0.043,0 0.047,0 0.054,-0.031 0.054,-0.078 0,-0.051 0,-0.172 0,-0.242 0,-0.071 0.008,-0.219 0.036,-0.27 0.023,-0.043 0.019,-0.094 -0.059,-0.094 -0.004,0 -0.094,0 -0.102,0 -0.093,0 -0.105,-0.109 -0.062,-0.144 0.308,-0.25 0.34,-0.688 0.34,-0.774 0,-0.074 -0.004,-0.14 0.074,-0.14 l 0.144,-0.004"
         style="fill:#ffffff;fill-opacity:1;fill-rule:nonzero;stroke:none"
         id="path10684" /><path
         d="m 6.789,36.965 c 0.027,0 0.047,-0.02 0.047,-0.051 v -0.562 c 0,-0.028 -0.02,-0.004 -0.047,-0.004 H 3.438 c -0.028,0 -0.051,-0.024 -0.051,0.004 v 0.562 c 0,0.031 0.023,0.051 0.051,0.051 l 0.14,0.004 c 0.07,0 0.07,0.066 0.07,0.133 0,0.082 0.043,0.519 0.344,0.781 0.043,0.035 0.028,0.144 -0.062,0.144 -0.008,0 -0.098,0 -0.102,0 -0.078,0 -0.086,0.051 -0.062,0.094 0.031,0.051 0.035,0.199 0.035,0.27 0,0.07 0,0.191 0,0.242 0,0.047 0.008,0.078 0.051,0.078 0.003,0 0.046,0 0.05,0 0,0 0.032,0 0.032,0.035 0,0.035 0.004,0.051 0.004,0.051 v 12.332 c -0.04,0.035 -0.172,0.168 -0.18,0.18 -0.012,0.007 -0.02,0.023 -0.02,0.046 v 0.204 c 0,0.015 -0.004,0.035 -0.015,0.046 -0.008,0.012 -0.028,0.016 -0.047,0.016 H 3.52 c -0.024,0 -0.047,0.027 -0.047,0.051 0,0 0,0.344 0,0.355 h 3.281 c 0,-0.011 0,-0.355 0,-0.355 0,-0.024 -0.024,-0.051 -0.047,-0.051 H 6.547 C 6.531,51.621 6.512,51.617 6.5,51.605 6.492,51.594 6.488,51.574 6.488,51.559 V 51.355 C 6.488,51.332 6.484,51.324 6.469,51.309 6.453,51.293 6.344,51.18 6.289,51.129 V 38.797 c 0,0 0,-0.016 0,-0.051 0,-0.035 0.035,-0.035 0.035,-0.035 0.004,0 0.039,0 0.043,0 0.047,0 0.051,-0.031 0.051,-0.078 0,-0.051 0,-0.172 0,-0.242 0,-0.071 0.012,-0.219 0.039,-0.27 0.023,-0.043 0.02,-0.094 -0.059,-0.094 -0.007,0 -0.093,0 -0.101,0 -0.098,0 -0.106,-0.109 -0.063,-0.144 0.309,-0.25 0.336,-0.688 0.336,-0.774 0,-0.074 0,-0.14 0.078,-0.14 l 0.141,-0.004"
         style="fill:#ffffff;fill-opacity:1;fill-rule:nonzero;stroke:none"
         id="path10686" /><path
         d="m 33.461,23.906 c 0,0 -0.277,0 -0.348,0 -0.093,0 -0.09,-0.074 -0.09,-0.074 0,0 0,-0.297 0,-0.375 0,-0.094 -0.093,-0.094 -0.093,-0.094 0,0 -0.25,0 -0.34,0 -0.094,0 -0.09,-0.082 -0.09,-0.082 v -0.343 c 0,0 0.004,-0.079 -0.086,-0.079 -0.031,0 -0.148,0 -0.203,0 -0.07,0 -0.145,-0.058 -0.149,-0.156 -0.011,-0.469 0.153,-3.777 -1.601,-6.172 -1.371,-2.054 -3.266,-3.101 -4.316,-3.586 -0.016,-0.445 -0.653,-0.617 -0.93,-0.715 -0.145,-0.046 -0.27,-0.105 -0.27,-0.234 0,-0.008 -0.004,-0.144 -0.004,-0.156 0,-0.137 0.125,-0.192 0.317,-0.184 0.058,0 0.105,-0.051 0.105,-0.09 v -0.398 c 0,-0.059 -0.054,-0.125 -0.136,-0.125 -0.137,0 -0.301,0 -0.383,0 -0.086,0 -0.129,-0.082 -0.129,-0.133 0,-0.082 0,-0.047 0,-0.203 0,-0.117 -0.094,-0.184 -0.164,-0.219 V 8.02 c 0,-0.082 0.062,-0.071 0.121,-0.071 0.008,0 0.019,0 0.027,-0.004 h 0.008 c 0.031,0 0.059,-0.027 0.059,-0.058 V 7.648 C 24.766,7.613 24.738,7.59 24.707,7.59 H 24.594 C 24.559,7.574 24.531,7.52 24.531,7.41 c 0,-0.113 0.031,-0.168 0.078,-0.176 h 0.098 c 0.031,0 0.059,-0.027 0.059,-0.058 V 6.938 c 0,-0.036 -0.028,-0.059 -0.059,-0.059 H 24.578 C 24.523,6.867 24.484,6.844 24.434,6.801 24.012,6.469 23.586,5.988 23.586,5.918 c 0,-0.039 -0.004,-0.043 -0.004,-0.09 0,-0.047 -0.051,-0.148 -0.164,-0.148 -0.109,0 -0.094,-0.118 -0.035,-0.118 0.039,0 0.051,-0.011 0.051,-0.066 0,-0.031 0,-0.094 0,-0.16 0,-0.07 -0.219,-0.367 -0.219,-0.367 h -0.012 c 0,0 -0.219,0.297 -0.219,0.367 0,0.066 0,0.129 0,0.16 0,0.055 0.012,0.066 0.051,0.066 0.059,0 0.074,0.118 -0.035,0.118 -0.117,0 -0.164,0.101 -0.164,0.148 0,0.047 -0.004,0.051 -0.004,0.09 0,0.07 -0.422,0.551 -0.844,0.883 -0.054,0.043 -0.093,0.066 -0.148,0.078 h -0.129 c -0.031,0 -0.055,0.023 -0.055,0.059 v 0.238 c 0,0.031 0.024,0.058 0.055,0.058 h 0.098 c 0.046,0.008 0.078,0.063 0.078,0.176 0,0.11 -0.028,0.164 -0.067,0.18 h -0.109 c -0.031,0 -0.055,0.023 -0.055,0.058 v 0.239 c 0,0.031 0.024,0.058 0.055,0.058 h 0.008 c 0.008,0.004 0.019,0.004 0.027,0.004 0.059,0 0.117,-0.011 0.117,0.071 v 2.468 c -0.066,0.035 -0.16,0.102 -0.16,0.219 0,0.156 0,0.121 0,0.203 0,0.051 -0.047,0.133 -0.133,0.133 -0.082,0 -0.242,0 -0.379,0 -0.086,0 -0.136,0.066 -0.136,0.125 v 0.398 c 0,0.039 0.047,0.09 0.101,0.09 0.192,-0.008 0.321,0.047 0.321,0.184 0,0.012 -0.004,0.148 -0.004,0.156 0,0.129 -0.129,0.188 -0.274,0.234 -0.277,0.098 -0.91,0.27 -0.929,0.715 -1.051,0.485 -2.946,1.532 -4.313,3.586 -1.754,2.395 -1.59,5.703 -1.602,6.172 -0.007,0.098 -0.074,0.156 -0.148,0.156 -0.055,0 -0.172,0 -0.203,0 -0.09,0 -0.09,0.079 -0.09,0.079 v 0.343 c 0,0 0.004,0.082 -0.09,0.082 -0.082,0 -0.344,0 -0.344,0 0,0 -0.085,0 -0.085,0.094 0,0.078 0,0.375 0,0.375 0,0 0.003,0.074 -0.094,0.074 -0.071,0 -0.344,0 -0.344,0 0,0 -0.094,0 -0.094,0.098 0,0.055 0,0.277 0,0.398 0,0.043 0.028,0.055 0.059,0.059 0.101,0.016 0.312,0.109 0.312,0.336 0,0.391 0.239,0.426 0.336,0.426 v 1.441 c 0,0.336 -0.265,0.469 -0.414,0.504 -0.027,0.004 -0.07,0.039 -0.07,0.082 0,0.035 0,1.48 0,1.48 L 23.203,26.5 h 0.012 l 10.113,2.23 c 0,0 0,-1.445 0,-1.48 0,-0.043 -0.043,-0.078 -0.07,-0.082 -0.149,-0.035 -0.41,-0.168 -0.41,-0.504 v -1.441 c 0.097,0 0.332,-0.035 0.332,-0.426 0,-0.227 0.215,-0.32 0.316,-0.336 0.031,-0.004 0.059,-0.016 0.059,-0.059 0,-0.121 0,-0.343 0,-0.398 0,-0.098 -0.094,-0.098 -0.094,-0.098"
         style="fill:#ffffff;fill-opacity:1;fill-rule:nonzero;stroke:none"
         id="path10688" /><path
         d="M 44.645,56.234 V 53.273 H 42.914 V 51.98 H 3.473 v 1.293 H 1.742 v 2.961 H 0 v 2.981 l 46.387,0.004 v -2.985 h -1.742"
         style="fill:#ffffff;fill-opacity:1;fill-rule:nonzero;stroke:none"
         id="path10690" /></g></g></svg>
